<?xml version="1.0" encoding="utf-8"?>
<!-- Generator: Adobe Illustrator 25.2.1, SVG Export Plug-In . SVG Version: 6.00 Build 0)  -->
<svg version="1.1" xmlns="http://www.w3.org/2000/svg" xmlns:xlink="http://www.w3.org/1999/xlink" x="0px" y="0px"
	 viewBox="0 0 106 92" style="enable-background:new 0 0 106 92;" xml:space="preserve">
<path d="M60.2,23.6c0.7,1,1,6.5,0.9,11.6c-6.6-1.6-14.5-3.8-15.4-4.6c-0.7-1-1-6.5-0.9-11.5C51.4,20.6,59.3,22.8,60.2,23.6 M53,2
	c14,0,25.4,11.4,25.4,25.4c0,14-11.4,25.4-25.4,25.4c-14,0-25.4-11.4-25.4-25.4C27.6,13.3,39,2,53,2 M70.1,36.8
	c1.3-1.2,1.3-18.7,0-20.5c-1.6-1.4-22.8-6.7-24.4-6.2c-0.6,0.5-0.9,4.6-0.9,8.9c-4.5-1-8.3-1.8-8.9-1.6c-1.3,1.2-1.3,18.7,0,20.5
	c1.6,1.4,22.8,6.7,24.4,6.2c0.6-0.5,0.9-4.6,0.9-8.9C65.6,36.2,69.5,37,70.1,36.8 M31.7,63.8c5.7,0,10.2,3.1,10.2,11.1V79
	c0,8-4.5,11.1-10.2,11.1C26,90,21.5,87,21.5,79v-4.1C21.5,66.9,26,63.8,31.7,63.8 M36,74.9c0-4.1-1.4-5.9-4.3-5.9
	c-2.9,0-4.2,1.8-4.2,5.9V79c0,4.1,1.3,5.9,4.2,5.9c2.9,0,4.3-1.8,4.3-5.9V74.9z M19.4,64.1H2.3c-0.4,0-0.7,0.3-0.7,0.7v3.5
	c0,0.4,0.3,0.7,0.7,0.7h5.6V89c0,0.4,0.3,0.7,0.7,0.7h4.5c0.4,0,0.7-0.3,0.7-0.7V69h5.6c0.4,0,0.7-0.3,0.7-0.7v-3.5
	C20.1,64.4,19.8,64.1,19.4,64.1 M61,64.1H43.9c-0.4,0-0.7,0.3-0.7,0.7v3.5c0,0.4,0.3,0.7,0.7,0.7h5.6V89c0,0.4,0.3,0.7,0.7,0.7h4.5
	c0.4,0,0.7-0.3,0.7-0.7V69H61c0.4,0,0.7-0.3,0.7-0.7v-3.5C61.7,64.4,61.4,64.1,61,64.1 M84.7,64.1h-4.8c-0.3,0-0.6,0.3-0.7,0.6
	l-4.3,19.9c-0.1,0.4-0.2,0.5-0.5,0.5c-0.3,0-0.4-0.1-0.5-0.5l-4.3-19.9c-0.1-0.3-0.3-0.6-0.7-0.6h-4.8c-0.3,0-0.6,0.2-0.6,0.6
	c0,0.1,0,0.1,0,0.2l5.1,21.4c0.8,3.3,3.3,3.8,5.7,3.8c2.4,0,4.9-0.5,5.7-3.8l5.1-21.4c0-0.1,0-0.1,0-0.2
	C85.3,64.3,85,64.1,84.7,64.1 M99.7,75.5l-4.4-2.4c-1.9-1-2.3-1.4-2.3-2.4c0-1.2,0.7-1.8,2.7-1.8c2.3,0,6.3,0.3,7.3,0.4h0.1
	c0.4,0,0.6-0.3,0.6-0.6v-3.5c0-0.4-0.2-0.6-0.5-0.6c-1.3-0.3-4.8-0.8-7.3-0.8c-6.7,0-8.8,2.9-8.8,6.7c0,2.5,0.9,4.7,4.1,6.6l4.8,2.8
	c1.8,1.1,2.3,1.6,2.3,2.6c0,1.7-0.7,2.4-3.1,2.4c-1.3,0-5.1-0.3-6.5-0.4h-0.1c-0.3,0-0.6,0.2-0.6,0.7v3.4c0,0.4,0.3,0.6,0.7,0.7
	c1.8,0.4,3.8,0.8,6.5,0.8c7,0,9.4-3.9,9.4-7.5C104.4,79.7,103.3,77.4,99.7,75.5"/>
</svg>
